{"glyphs":{"0":{"ha":732,"x_min":59,"x_max":675,"o":"m 367 -142 q 248 -118 304 -142 q 150 -52 192 -94 q 83 46 108 -9 q 59 165 59 102 l 59 650 q 84 769 59 713 q 151 866 109 825 q 249 932 193 908 q 367 957 304 957 q 486 932 430 957 q 584 866 542 908 q 650 768 626 824 q 675 650 675 712 l 675 165 q 650 46 675 102 q 583 -52 625 -10 q 485 -118 541 -94 q 367 -142 429 -142 m 367 801 q 312 788 339 801 q 263 753 285 774 q 229 705 242 732 q 216 650 216 677 l 216 165 q 228 107 216 134 q 261 59 240 79 q 309 26 281 38 q 367 14 336 14 q 427 25 399 14 q 475 56 455 36 q 507 104 496 77 q 518 165 518 132 l 518 650 q 506 708 518 680 q 473 756 494 735 q 425 789 452 777 q 367 801 397 801 z "},"1":{"ha":732,"x_min":144,"x_max":475,"o":"m 319 -130 l 319 747 q 309 741 314 744 q 298 734 304 737 q 238 694 272 715 q 159 650 204 672 l 144 642 l 144 801 l 150 804 q 213 839 185 821 q 262 872 241 857 q 298 901 283 888 q 322 923 313 914 l 339 940 l 475 940 l 475 -130 l 319 -130 z "},"2":{"ha":732,"x_min":54,"x_max":674,"o":"m 68 -129 l 68 18 l 82 48 l 83 50 q 108 79 94 62 q 138 115 122 95 q 231 222 185 169 q 323 329 277 275 q 341 351 332 340 q 358 373 349 362 q 422 453 393 416 q 473 525 452 490 q 509 590 497 562 q 520 641 520 618 q 510 704 520 675 q 481 755 500 734 q 434 790 462 777 q 371 802 406 802 q 309 792 338 802 q 258 762 280 781 q 222 715 235 743 q 209 654 209 688 l 209 630 l 54 630 l 54 654 q 80 774 54 719 q 149 871 105 830 q 250 935 192 911 q 371 958 307 958 q 463 946 419 958 q 545 911 507 935 q 610 853 582 888 q 654 772 639 819 q 674 641 674 713 q 660 552 674 597 q 614 456 645 507 q 550 363 586 410 q 473 269 513 317 q 459 252 466 260 q 446 235 453 244 q 397 180 420 205 q 354 130 374 154 q 304 72 327 98 q 263 26 281 46 l 661 26 l 661 -129 l 68 -129 z "},"3":{"ha":739,"x_min":5,"x_max":711,"o":"m 351 -140 q 262 -127 306 -140 q 181 -91 219 -114 q 110 -35 142 -67 q 54 36 77 -3 q 18 118 31 75 q 5 206 5 161 l 5 217 l 161 217 l 161 206 q 176 134 161 169 q 218 73 192 100 q 279 31 245 47 q 351 16 314 16 q 438 33 402 16 q 499 80 475 50 q 537 149 524 110 q 555 233 551 189 q 541 309 555 274 q 500 369 526 344 q 440 409 475 395 q 365 423 405 423 l 363 423 l 363 424 q 339 426 351 426 q 311 422 322 426 q 293 414 299 418 q 285 408 288 411 q 279 401 282 405 l 276 397 l 253 397 l 148 502 l 458 785 l 72 785 l 72 942 l 671 942 l 671 778 l 441 574 q 558 524 507 557 q 643 446 608 491 q 694 343 677 400 q 711 219 711 286 l 711 218 q 679 75 707 141 q 604 -38 651 9 q 493 -113 557 -86 q 351 -140 429 -140 z "},"4":{"ha":760,"x_min":28,"x_max":710,"o":"m 28 222 l 468 942 l 604 942 l 604 229 l 710 229 l 710 75 l 604 75 l 604 -136 l 450 -136 l 450 75 l 28 75 l 28 222 m 450 229 l 450 629 l 203 229 l 450 229 z "},"5":{"ha":732,"x_min":37,"x_max":680,"o":"m 352 -154 q 236 -133 290 -154 q 139 -73 181 -111 q 71 18 98 -35 q 38 132 44 70 l 37 144 l 196 144 l 197 135 q 218 85 203 109 q 253 44 233 62 q 299 16 274 26 q 352 6 325 6 q 416 20 386 6 q 470 57 447 33 q 507 111 493 80 q 520 174 520 141 l 520 271 q 506 334 520 305 q 469 382 492 362 q 415 413 446 402 q 352 425 385 425 q 290 416 317 425 q 242 395 263 408 q 207 369 222 383 q 180 345 191 355 l 174 339 l 66 402 l 66 943 l 652 943 l 652 783 l 225 783 l 225 561 q 284 577 254 570 q 352 585 314 585 q 478 561 418 585 q 582 494 537 536 q 654 395 627 452 q 680 271 680 337 l 680 174 q 655 45 680 105 q 586 -59 630 -15 q 481 -129 541 -104 q 352 -154 421 -154 z "},"6":{"ha":732,"x_min":50,"x_max":682,"o":"m 373 -146 q 245 -121 304 -146 q 143 -53 186 -96 q 75 50 100 -9 q 50 177 50 109 l 50 245 q 58 309 50 276 q 78 371 66 342 l 78 372 l 79 373 q 96 401 83 379 q 129 462 109 424 q 176 553 149 500 q 237 672 203 606 q 303 800 269 732 q 376 942 338 867 l 380 948 l 553 948 l 355 566 q 387 568 367 568 q 509 542 454 568 q 602 470 564 515 q 662 367 641 425 q 682 245 682 309 l 682 177 q 659 53 682 112 q 593 -50 635 -5 q 495 -120 552 -94 q 373 -146 439 -146 m 208 245 l 208 177 q 221 114 208 144 q 257 61 234 83 q 310 25 279 38 q 373 12 340 12 q 435 25 407 12 q 483 62 463 39 q 514 115 503 85 q 525 177 525 144 l 525 245 q 514 307 525 277 q 483 360 503 337 q 435 396 463 382 q 373 410 407 410 q 309 397 339 410 q 256 362 279 385 q 221 310 234 340 q 208 245 208 279 z "},"7":{"ha":732,"x_min":72,"x_max":669,"o":"m 120 -131 l 493 786 l 72 786 l 75 943 l 669 943 l 668 808 l 292 -131 l 120 -131 z "},"8":{"ha":732,"x_min":45,"x_max":690,"o":"m 368 -149 q 242 -121 301 -149 q 140 -46 184 -93 q 70 60 96 0 q 45 186 45 121 q 53 260 45 224 q 78 330 62 296 q 119 392 95 363 q 174 444 143 421 q 98 545 124 486 q 72 671 72 603 q 96 783 72 730 q 162 877 121 836 q 256 942 203 918 q 368 966 310 966 q 483 942 427 966 q 582 879 538 919 q 650 785 625 839 q 676 671 676 732 q 650 545 676 603 q 575 444 624 486 q 627 391 606 420 q 663 329 649 362 q 684 259 677 295 q 690 186 690 222 q 666 58 690 119 q 597 -48 641 -3 q 495 -121 554 -94 q 368 -149 436 -149 m 368 365 q 300 350 331 365 q 248 310 270 335 q 214 253 227 286 q 202 186 202 221 q 215 121 202 153 q 251 64 229 90 q 303 24 273 39 q 368 8 334 8 q 434 23 404 8 q 487 62 465 38 q 521 119 509 87 q 533 186 533 151 q 522 256 533 223 q 489 313 511 288 q 437 351 468 337 q 368 365 406 365 m 368 809 q 314 798 339 809 q 270 769 288 787 q 240 725 251 750 q 229 671 229 700 q 239 614 229 642 q 267 566 249 587 q 311 533 286 545 q 368 520 336 520 q 429 531 401 520 q 477 563 456 543 q 508 610 497 583 q 519 671 519 638 q 507 728 519 703 q 473 771 494 753 q 425 799 452 789 q 368 809 397 809 z "},"9":{"ha":732,"x_min":62,"x_max":686,"o":"m 176 -133 l 390 295 l 380 295 q 255 319 313 295 q 154 387 197 344 q 87 488 111 430 q 62 613 62 546 l 62 640 q 88 763 62 705 q 157 864 113 821 q 258 932 200 907 q 380 958 315 958 q 499 931 444 958 q 596 860 555 905 q 662 759 637 816 q 686 640 686 701 l 686 613 q 677 541 686 572 q 659 481 669 510 l 658 475 l 347 -133 l 176 -133 m 380 802 q 317 789 347 802 q 266 754 288 777 q 231 702 243 732 q 218 640 218 673 l 218 613 q 231 551 218 581 q 267 499 244 522 q 318 464 289 477 q 380 450 348 450 q 438 465 411 450 q 486 502 466 479 q 518 554 507 525 q 530 613 530 583 l 530 640 q 518 699 530 669 q 486 751 507 728 q 439 788 466 774 q 380 802 412 802 z "},"\u0000":{"ha":0,"x_min":0,"x_max":0,"o":""},"\r":{"ha":347,"x_min":0,"x_max":0,"o":""}," ":{"ha":347,"x_min":0,"x_max":0,"o":""},".":{"ha":334,"x_min":96,"x_max":241,"o":"m 96 14 l 241 14 l 241 -132 l 96 -132 l 96 14 z "},",":{"ha":334,"x_min":103,"x_max":255,"o":"m 223 -169 l 103 -223 l 103 11 l 255 11 l 223 -169 z "},"+":{"ha":841,"x_min":75,"x_max":769,"o":"m 75 460 l 360 460 l 360 746 l 484 746 l 484 460 l 769 460 l 769 337 l 484 337 l 484 52 l 360 52 l 360 337 l 75 337 l 75 460 z "},"−":{"ha":841,"x_min":138,"x_max":709,"o":"m 138 336 l 138 459 l 709 459 l 709 336 l 138 336 z "},"%":{"ha":1085,"x_min":35,"x_max":1050,"o":"m 850 -146 q 715 -95 772 -146 q 685 -63 697 -81 q 665 -23 673 -44 q 654 21 657 -1 q 650 66 650 44 l 650 208 q 665 298 651 255 q 715 371 678 340 q 850 420 773 420 q 990 371 930 420 l 990 370 q 1018 336 1007 355 q 1036 295 1029 317 q 1046 252 1043 274 q 1050 208 1049 230 l 1050 66 q 1047 22 1050 44 q 1038 -22 1044 -1 q 1019 -62 1031 -43 q 990 -95 1008 -81 q 850 -146 931 -146 m 850 310 q 808 301 824 310 q 783 277 791 292 q 771 241 774 262 q 768 199 768 221 l 768 76 q 771 33 768 53 q 783 -1 774 14 q 808 -23 791 -15 q 850 -31 824 -31 q 893 -23 877 -31 q 917 -1 909 -15 q 929 33 926 14 q 932 76 932 53 l 932 199 q 929 241 932 221 q 917 276 926 261 q 892 301 908 292 q 850 310 876 310 m 231 -135 l 728 947 l 861 947 l 364 -135 l 231 -135 m 235 392 q 100 443 157 392 q 69 476 81 457 q 50 515 57 494 q 39 558 42 536 q 35 603 36 581 l 35 746 q 39 791 36 768 q 50 835 42 814 q 69 874 57 856 q 100 908 81 893 q 235 957 157 957 q 375 908 316 957 l 376 908 q 403 874 392 893 q 421 833 414 854 q 431 790 428 812 q 435 746 435 768 l 435 603 q 432 559 435 582 q 422 516 429 537 q 404 476 415 494 q 375 443 392 457 q 235 392 316 392 m 235 848 q 172 823 192 848 q 153 737 153 794 l 153 614 q 156 571 153 591 q 168 537 159 551 q 193 515 176 523 q 235 507 209 507 q 278 515 262 507 q 302 537 294 523 q 314 571 311 551 q 317 614 317 591 l 317 737 q 314 780 317 760 q 302 815 311 800 q 278 840 294 831 q 235 848 262 848 z "},"¥":{"ha":746,"x_min":23,"x_max":731,"o":"m 23 945 l 173 945 l 378 522 l 582 945 l 731 945 l 473 399 l 664 399 l 664 264 l 445 264 l 445 182 l 664 182 l 664 46 l 445 46 l 445 -132 l 309 -132 l 309 46 l 92 46 l 92 182 l 309 182 l 309 264 l 92 264 l 92 399 l 282 399 l 23 945 z "},"w":{"ha":1051,"x_min":12,"x_max":1040,"o":"m 178 619 l 312 116 l 470 619 l 583 619 l 741 116 l 874 619 l 1040 619 l 808 -131 l 671 -131 l 526 372 l 381 -131 l 245 -131 l 12 619 l 178 619 z "},"m":{"ha":1214,"x_min":98,"x_max":1135,"o":"m 979 -132 l 979 313 q 969 375 979 347 q 943 423 960 403 q 899 454 925 443 q 838 465 872 465 q 776 454 803 465 q 731 421 749 442 q 704 373 713 401 q 695 313 695 345 l 695 -132 l 538 -132 l 538 313 q 529 375 538 347 q 502 423 520 403 q 458 454 484 443 q 397 465 432 465 q 336 453 363 465 q 291 421 309 441 q 263 373 273 401 q 254 313 254 345 l 254 -132 l 98 -132 l 98 618 l 255 618 l 255 548 q 340 608 292 589 q 443 627 388 627 q 570 600 523 625 l 570 600 q 651 533 614 573 q 756 606 698 585 q 883 627 814 627 q 955 616 920 627 q 1021 586 990 606 q 1076 539 1051 567 q 1114 477 1100 511 q 1129 425 1124 453 q 1135 364 1135 397 l 1135 -132 l 979 -132 z "},"-":{"ha":841,"x_min":138,"x_max":709,"o":"m 138 336 l 138 459 l 709 459 l 709 336 l 138 336 z "}}}
